<svg version="1.1" xmlns="http://www.w3.org/2000/svg" xmlns:xlink="http://www.w3.org/1999/xlink" x="0px" y="0px" viewBox="0 0 48 48" xml:space="preserve"><title>bear 2</title><g class="nc-icon-wrapper" stroke-linecap="square" stroke-linejoin="miter" stroke-width="2" stroke="currentColor"><circle fill="none" stroke="currentColor" stroke-miterlimit="10" cx="24" cy="26" r="20"/> <polygon data-color="color-2" fill="none" stroke-miterlimit="10" points=" 24,33 27,29 21,29 "/> <polygon data-color="color-2" data-stroke="none" points="24,33 27,29 21,29 " stroke-linejoin="miter" stroke-linecap="square" stroke="none"/> <line data-color="color-2" fill="none" stroke-miterlimit="10" x1="24" y1="33" x2="24" y2="37"/> <line data-color="color-2" fill="none" stroke-miterlimit="10" x1="20" y1="37" x2="28" y2="37"/> <circle data-color="color-2" data-stroke="none" cx="17" cy="22" r="2" stroke-linejoin="miter" stroke-linecap="square" stroke="none"/> <circle data-color="color-2" data-stroke="none" cx="31" cy="22" r="2" stroke-linejoin="miter" stroke-linecap="square" stroke="none"/> <path data-cap="butt" fill="none" stroke="currentColor" stroke-miterlimit="10" d="M13.942,8.71 C13.971,8.471,14,8.247,14,8c0-3.314-2.686-6-6-6S2,4.686,2,8s2.686,6,6,6" stroke-linecap="butt"/> <path data-cap="butt" fill="none" stroke="currentColor" stroke-miterlimit="10" d="M34.058,8.71 C34.029,8.471,34,8.247,34,8c0-3.314,2.686-6,6-6s6,2.686,6,6s-2.686,6-6,6" stroke-linecap="butt"/></g></svg>