<svg version="1.1" xmlns="http://www.w3.org/2000/svg" xmlns:xlink="http://www.w3.org/1999/xlink" x="0px" y="0px" viewBox="0 0 48 48" xml:space="preserve"><title>spaceship</title><g class="nc-icon-wrapper" stroke-linecap="square" stroke-linejoin="miter" stroke-width="2" fill="#111111" stroke="#111111"><line data-cap="butt" fill="none" stroke="#111111" stroke-miterlimit="10" x1="29.87" y1="6.187" x2="41.764" y2="18.08" stroke-linecap="butt"/> <path data-cap="butt" fill="none" stroke="#111111" stroke-miterlimit="10" d="M25.207,8.775 c-5.842-2.516-12.878-1.389-17.649,3.383c-0.979,0.979-1.786,2.06-2.458,3.199l6.855,6.855" stroke-linecap="butt"/> <path data-cap="butt" fill="none" stroke="#111111" stroke-miterlimit="10" d="M39.185,22.704 c2.579,5.864,1.459,12.936-3.343,17.738c-0.979,0.979-2.06,1.786-3.199,2.458l-6.884-6.884" stroke-linecap="butt"/> <path fill="none" stroke="#111111" stroke-miterlimit="10" d="M20.285,39.028 L8.971,27.714c0,0,9.664-24.042,36.77-25.456C44.209,29.246,20.285,39.028,20.285,39.028z"/> <path data-color="color-2" fill="none" stroke-miterlimit="10" d="M2,41c0-2.761,2.239-5,5-5 s5,2.239,5,5s-2.239,5-5,5c-1.125,0-5,0-5,0S2,42.637,2,41z"/> <circle data-color="color-2" fill="none" stroke-miterlimit="10" cx="27" cy="21" r="4"/></g></svg>